<?xml version="1.0" encoding="utf-8"?>
<!-- Generator: Adobe Illustrator 26.1.0, SVG Export Plug-In . SVG Version: 6.00 Build 0)  -->
<svg version="1.1" id="Calque_1" xmlns="http://www.w3.org/2000/svg" xmlns:xlink="http://www.w3.org/1999/xlink" x="0px" y="0px"
	 viewBox="0 0 100 100" style="enable-background:new 0 0 100 100;" xml:space="preserve">
<style type="text/css">
	.st0{stroke:#000000;stroke-width:4;stroke-linejoin:round;stroke-miterlimit:10;}
</style>
<path class="st0" d="M50,40c0.06,0,0.13,0.01,0.19,0.01l-11.8-28.5L31,14.58l11.8,28.5C44.62,41.18,47.17,40,50,40z"/>
<path class="st0" d="M69,85.42l-11.8-28.5C55.38,58.82,52.83,60,50,60c-0.06,0-0.13-0.01-0.19-0.01l11.8,28.5L69,85.42z"/>
<path class="st0" d="M43.07,42.8L14.58,31l-3.06,7.39l28.5,11.8c0-0.06-0.01-0.13-0.01-0.19C40,47.17,41.18,44.62,43.07,42.8z"/>
<path class="st0" d="M88.49,61.61l-28.5-11.8c0,0.06,0.01,0.13,0.01,0.19c0,2.83-1.18,5.38-3.07,7.2L85.42,69L88.49,61.61z"/>
<path class="st0" d="M40,50c0-0.06,0.01-0.13,0.01-0.19l-28.5,11.8L14.58,69l28.5-11.8C41.18,55.38,40,52.83,40,50z"/>
<path class="st0" d="M60,50c0,0.06-0.01,0.13-0.01,0.19l28.5-11.8L85.42,31l-28.5,11.8C58.82,44.62,60,47.17,60,50z"/>
<path class="st0" d="M42.8,56.93L31,85.42l7.39,3.06l11.8-28.5C50.13,59.99,50.06,60,50,60C47.17,60,44.62,58.82,42.8,56.93z"/>
<path class="st0" d="M57.2,43.07L69,14.58l-7.39-3.06l-11.8,28.5c0.06,0,0.13-0.01,0.19-0.01C52.83,40,55.38,41.18,57.2,43.07z"/>
<path class="st0" d="M60.36,25H39.64L25,39.64v20.71L39.64,75h20.71L75,60.36V39.64L60.36,25z M50,60c-5.52,0-10-4.48-10-10
	c0-5.52,4.48-10,10-10s10,4.48,10,10C60,55.52,55.52,60,50,60z"/>
</svg>
