<?xml version="1.0" encoding="utf-8"?>
<!-- Generator: Adobe Illustrator 26.2.1, SVG Export Plug-In . SVG Version: 6.00 Build 0)  -->
<svg version="1.1" id="Calque_1" xmlns="http://www.w3.org/2000/svg" xmlns:xlink="http://www.w3.org/1999/xlink" x="0px" y="0px"
	 viewBox="0 0 100 100" style="enable-background:new 0 0 100 100;" xml:space="preserve">
<style type="text/css">
	.st0{stroke:#000000;stroke-width:4;stroke-linejoin:round;stroke-miterlimit:10;}
</style>
<path class="st0" d="M50,40c0.06,0,0.13,0.01,0.19,0.01l-11.8-28.5L31,14.58l11.8,28.5C44.62,41.18,47.17,40,50,40z"/>
<path class="st0" d="M57.2,56.93C55.38,58.82,52.83,60,50,60c-0.06,0-0.13-0.01-0.19-0.01l11.8,28.5L69,85.42L57.2,56.93z"/>
<path class="st0" d="M43.07,42.8L14.58,31l-3.06,7.39l28.5,11.8c0-0.06-0.01-0.13-0.01-0.19C40,47.17,41.18,44.62,43.07,42.8z"/>
<path class="st0" d="M59.99,49.81c0,0.06,0.01,0.13,0.01,0.19c0,2.83-1.18,5.38-3.07,7.2L85.42,69l3.06-7.39L59.99,49.81z"/>
<path class="st0" d="M40.01,49.81l-28.5,11.8L14.58,69l28.5-11.8C41.18,55.38,40,52.83,40,50C40,49.94,40.01,49.87,40.01,49.81z"/>
<path class="st0" d="M88.49,38.39L85.42,31l-28.5,11.8C58.82,44.62,60,47.17,60,50c0,0.06-0.01,0.13-0.01,0.19L88.49,38.39z"/>
<path class="st0" d="M42.8,56.93L31,85.42l7.39,3.06l11.8-28.5C50.13,59.99,50.06,60,50,60C47.17,60,44.62,58.82,42.8,56.93z"/>
<path class="st0" d="M57.2,43.07L69,14.58l-7.39-3.06l-11.8,28.5c0.06,0,0.13-0.01,0.19-0.01C52.83,40,55.38,41.18,57.2,43.07z"/>
<path class="st0" d="M50,22.5c-15.19,0-27.5,12.31-27.5,27.5c0,15.19,12.31,27.5,27.5,27.5S77.5,65.19,77.5,50
	C77.5,34.81,65.19,22.5,50,22.5z M50,57.5c-4.14,0-7.5-3.36-7.5-7.5s3.36-7.5,7.5-7.5s7.5,3.36,7.5,7.5S54.14,57.5,50,57.5z"/>
</svg>
